#define image_width 128
#define image_height 64
static char image_bits[] = {
  0x04, 0x10, 0x00, 0x02, 0x40, 0x80, 0x00, 0x00, 0x00, 0x20, 0x00, 0x08, 
  0x00, 0x00, 0x00, 0x00, 0x00, 0x00, 0x01, 0x20, 0x08, 0x00, 0x00, 0x00, 
  0x00, 0x01, 0x00, 0x00, 0x80, 0x02, 0x00, 0x00, 0x10, 0x00, 0x80, 0x00, 
  0x00, 0x00, 0x00, 0x00, 0x00, 0x00, 0x10, 0x00, 0x00, 0x40, 0x00, 0x00, 
  0x00, 0x08, 0x00, 0x00, 0x00, 0x01, 0x00, 0x00, 0x40, 0x00, 0x02, 0x10, 
  0x01, 0x00, 0x00, 0x00, 0x00, 0x00, 0x22, 0x00, 0x00, 0x88, 0x00, 0x00, 
  0x00, 0x40, 0x00, 0x00, 0x04, 0x00, 0x00, 0x00, 0x00, 0x00, 0x00, 0x20, 
  0x08, 0x00, 0x00, 0x00, 0x11, 0x08, 0x80, 0x00, 0x80, 0x22, 0x00, 0x00, 
  0x10, 0x00, 0x00, 0x04, 0x00, 0x00, 0x00, 0x00, 0x00, 0x00, 0x00, 0x00, 
  0x00, 0x00, 0x00, 0x00, 0x02, 0x88, 0x00, 0x00, 0x20, 0x00, 0x00, 0x00, 
  0x00, 0x00, 0x02, 0x11, 0x00, 0x00, 0x00, 0x00, 0x80, 0x00, 0x00, 0x00, 
  0x40, 0x00, 0x00, 0x00, 0x88, 0x40, 0x00, 0x00, 0x00, 0x00, 0x00, 0x00, 
  0x00, 0x00, 0x00, 0x22, 0x04, 0x00, 0x00, 0x00, 0x00, 0x00, 0x00, 0x00, 
  0x08, 0x04, 0x00, 0x00, 0x00, 0x00, 0x88, 0x00, 0x00, 0x12, 0x00, 0x00, 
  0x00, 0x01, 0x10, 0x48, 0x20, 0x20, 0x00, 0x00, 0x01, 0x81, 0x00, 0x00, 
  0x00, 0x00, 0x00, 0x00, 0x00, 0x00, 0x04, 0x00, 0x00, 0x00, 0x00, 0x00, 
  0x88, 0x10, 0x04, 0x20, 0x00, 0x40, 0x00, 0x00, 0x08, 0x40, 0x00, 0x02, 
  0x00, 0x00, 0x00, 0x00, 0x00, 0x00, 0x00, 0x00, 0x04, 0x00, 0x00, 0x00, 
  0x00, 0x08, 0x00, 0x00, 0x00, 0x00, 0x00, 0x00, 0x00, 0x00, 0x00, 0x08, 
  0x20, 0x02, 0x00, 0x00, 0x00, 0x00, 0x80, 0x00, 0x20, 0x22, 0x00, 0x00, 
  0x00, 0x00, 0x40, 0x00, 0x00, 0x00, 0x00, 0x00, 0x10, 0x00, 0x04, 0x00, 
  0x02, 0x00, 0x00, 0x00, 0x00, 0x00, 0xBF, 0xD9, 0xFF, 0x6A, 0x00, 0x00, 
  0x00, 0x00, 0xFB, 0xED, 0xFD, 0xF6, 0x00, 0x00, 0x00, 0x00, 0xD7, 0xBF, 
  0xDA, 0xFF, 0x00, 0x00, 0x80, 0x02, 0x9F, 0xBF, 0xA7, 0xDF, 0x00, 0x00, 
  0x00, 0x00, 0xFF, 0xFF, 0x5F, 0x65, 0x00, 0x00, 0x00, 0x40, 0xFE, 0xE9, 
  0xBD, 0x6F, 0x00, 0x00, 0x10, 0x11, 0xB6, 0xD6, 0xF5, 0xFF, 0x00, 0x00, 
  0x01, 0x00, 0xBB, 0xBF, 0xF7, 0xF9, 0x00, 0x00, 0x81, 0x00, 0x9F, 0x6F, 
  0x5D, 0xF7, 0x00, 0x00, 0x04, 0x00, 0xAB, 0xFF, 0xFF, 0x6D, 0x00, 0x00, 
  0x00, 0x80, 0xF6, 0xFA, 0xFF, 0xBD, 0x00, 0x00, 0x80, 0x22, 0xFE, 0xA6, 
  0x69, 0xFB, 0x00, 0x00, 0x00, 0x00, 0xFB, 0x6B, 0xF9, 0xA7, 0x00, 0x00, 
  0x00, 0x00, 0x5B, 0xBF, 0xFF, 0x7F, 0x00, 0x00, 0x00, 0x01, 0x6F, 0xFF, 
  0x5F, 0xFD, 0x00, 0x00, 0x00, 0x00, 0xFE, 0xF5, 0x6B, 0xED, 0x00, 0x00, 
  0x11, 0x40, 0xAF, 0xFE, 0xFE, 0xFA, 0x00, 0x00, 0x00, 0x00, 0x6B, 0xFD, 
  0xFE, 0xF6, 0x00, 0x00, 0x00, 0x08, 0xFD, 0x5B, 0x67, 0x5F, 0x00, 0x00, 
  0x08, 0x24, 0xFF, 0x6F, 0x5B, 0x6F, 0x00, 0x00, 0x00, 0x00, 0xF6, 0xFE, 
  0xD7, 0xDF, 0x00, 0x00, 0x20, 0x00, 0x69, 0xFB, 0xFE, 0xB6, 0x00, 0x00, 
  0x00, 0x00, 0xAF, 0xBB, 0xFE, 0xFA, 0x00, 0x00, 0x00, 0x00, 0xFF, 0x6D, 
  0xAB, 0xFF, 0x00, 0x00, 0x10, 0x00, 0xF7, 0xAB, 0x6B, 0x5D, 0x00, 0x00, 
  0x00, 0x00, 0xF5, 0xF9, 0xBA, 0xBF, 0x00, 0x00, 0x00, 0x08, 0x9E, 0xFE, 
  0xFD, 0xFF, 0x00, 0x00, 0x00, 0x00, 0x6F, 0x6F, 0xFF, 0xE9, 0x00, 0x00, 
  0x00, 0x00, 0xFE, 0x5B, 0xFF, 0xAB, 0x00, 0x00, 0x20, 0x22, 0xBF, 0xDF, 
  0x9F, 0xBF, 0x00, 0x00, 0x08, 0x20, 0xD7, 0xFE, 0xAB, 0xFD, 0x00, 0x00, 
  0x02, 0x00, 0xF5, 0xF6, 0xFA, 0xED, 0x00, 0x00, 0x00, 0x02, 0xAB, 0xFF, 
  0xFF, 0xD5, 0xFF, 0xFF, 0x00, 0x00, 0x6F, 0xAF, 0x7F, 0xF6, 0xFF, 0xFF, 
  0x01, 0x20, 0xFF, 0xA9, 0x95, 0xFF, 0xFF, 0xFF, 0x88, 0x00, 0xFB, 0xFD, 
  0xE6, 0x6F, 0xFF, 0xFF, 0x80, 0x00, 0xFD, 0xFF, 0xFF, 0xBF, 0xFF, 0xFF, 
  0x00, 0x88, 0xF6, 0xF5, 0xFB, 0xB6, 0xFF, 0xFF, 0x00, 0x00, 0xAB, 0x5B, 
  0xBA, 0xD5, 0xFF, 0xFF, 0x00, 0x00, 0x9F, 0xAF, 0x6F, 0xFF, 0xFF, 0xFF, 
  0x22, 0x00, 0xFE, 0xFA, 0x5F, 0x7F, 0xFF, 0xFF, 0x04, 0x02, 0xB6, 0xFF, 
  0xD6, 0xAB, 0xFF, 0xFF, 0x00, 0x20, 0xD7, 0xDF, 0xFB, 0xEB, 0xFF, 0xFF, 
  0x00, 0x00, 0xDF, 0x96, 0xFF, 0xFD, 0xFF, 0xFF, 0x00, 0x04, 0x67, 0x5F, 
  0xFA, 0xE6, 0xFF, 0xFF, 0x00, 0x00, 0xF6, 0xFF, 0xBF, 0xFF, 0xFF, 0xFF, 
  0x00, 0x00, 0xFE, 0xFA, 0x5F, 0x7F, 0xFF, 0xFF, 0x20, 0x40, 0xBF, 0xD6, 
  0xD9, 0xAB, 0xFF, 0xFF, 0x00, 0x00, 0x5F, 0xFD, 0xBF, 0xFA, 0xFF, 0xFF, 
  0x80, 0x00, 0x6F, 0x7F, 0xFD, 0xFF, 0xFF, 0xFF, 0x00, 0x22, 0xF9, 0xA7, 
  0xE5, 0x9F, 0xFF, 0xFF, 0x00, 0x10, 0xFD, 0xDA, 0xAB, 0x99, 0xFF, 0xFF, 
  0x88, 0x00, 0xFF, 0xBD, 0xBD, 0xFF, 0xFF, 0xFF, 0x01, 0x04, 0x65, 0x7F, 
  0xFF, 0xFF, 0xFF, 0xFF, 0x00, 0x00, 0x5B, 0xF7, 0xEF, 0xBA, 0xFF, 0xFF, 
  0x00, 0x00, 0xFF, 0xD5, 0x5D, 0xDB, 0xFF, 0xFF, 0x02, 0x20, 0xF6, 0xFF, 
  0xFF, 0x6F, 0xFF, 0xFF, 0x88, 0x00, 0xFD, 0x5D, 0xFA, 0x7E, 0xFF, 0xFF, 
  0x00, 0x00, 0x5F, 0x65, 0xA6, 0xFA, 0xFF, 0xFF, 0x00, 0x00, 0x97, 0xFF, 
  0xDF, 0xDB, 0xFF, 0xFF, 0x00, 0x08, 0xD6, 0xFF, 0xFF, 0x6B, 0xFF, 0xFF, 
  0x00, 0x04, 0xFD, 0xF9, 0x5F, 0x7E, 0xFF, 0xFF, 0x40, 0x00, 0xFF, 0xEA, 
  0x56, 0xFF, 0xFF, 0xFF, 0x00, 0x00, 0xB7, 0xDF, 0xFA, 0xDB, 0xFF, 0xFF, 
  0xFF, 0xFF, 0xFF, 0xFF, 0xFF, 0xFF, 0xFF, 0xFF, 0xFF, 0xFF, 0xFF, 0xFF, 
  0xFF, 0xFF, 0xFF, 0xFF, 0xFF, 0xFF, 0xFF, 0xFF, 0xFF, 0xFF, 0xFF, 0xFF, 
  0xFF, 0xFF, 0xFF, 0xFF, 0xFF, 0xFF, 0xFF, 0xFF, 0xFF, 0xFF, 0xFF, 0xFF, 
  0xFF, 0xFF, 0xFF, 0xFF, 0xFF, 0xFF, 0xFF, 0xFF, 0xFF, 0xFF, 0xFF, 0xFF, 
  0xFF, 0xFF, 0xFF, 0xFF, 0xFF, 0xFF, 0xFF, 0xFF, 0xFF, 0xFF, 0xFF, 0xFF, 
  0xFF, 0xFF, 0xFF, 0xFF, 0xFF, 0xFF, 0xFF, 0xFF, 0xFF, 0xFF, 0xFF, 0xFF, 
  0xFF, 0xFF, 0xFF, 0xFF, 0xFF, 0xFF, 0xFF, 0xFF, 0xFF, 0xFF, 0xFF, 0xFF, 
  0xFF, 0xFF, 0xFF, 0xFF, 0xFF, 0xFF, 0xFF, 0xFF, 0xFF, 0xFF, 0xFF, 0xFF, 
  0xFF, 0xFF, 0xFF, 0xFF, 0xFF, 0xFF, 0xFF, 0xFF, 0xFF, 0xFF, 0xFF, 0xFF, 
  0xFF, 0xFF, 0xFF, 0xFF, 0xFF, 0xFF, 0xFF, 0xFF, 0xFF, 0xFF, 0xFF, 0xFF, 
  0xFF, 0xFF, 0xFF, 0xFF, 0xFF, 0xFF, 0xFF, 0xFF, 0xFF, 0xFF, 0xFF, 0xFF, 
  0xFF, 0xFF, 0xFF, 0xFF, 0xFF, 0xFF, 0xFF, 0xFF, 0xFF, 0xFF, 0xFF, 0xFF, 
  0xFF, 0xFF, 0xFF, 0xFF, 0xFF, 0xFF, 0xFF, 0xFF, 0xFF, 0xFF, 0xFF, 0xFF, 
  0xFF, 0xFF, 0xFF, 0xFF, 0xFF, 0xFF, 0xFF, 0xFF, 0xFF, 0xFF, 0xFF, 0xFF, 
  0xFF, 0xFF, 0xFF, 0xFF, 0xFF, 0xFF, 0xFF, 0xFF, 0xFF, 0xFF, 0xFF, 0xFF, 
  0xFF, 0xFF, 0xFF, 0xFF, 0xFF, 0xFF, 0xFF, 0xFF, 0xFF, 0xFF, 0xFF, 0xFF, 
  0xFF, 0xFF, 0xFF, 0xFF, 0xFF, 0xFF, 0xFF, 0xFF, 0xFF, 0xFF, 0xFF, 0xFF, 
  0xFF, 0xFF, 0xFF, 0xFF, 0xFF, 0xFF, 0xFF, 0xFF, 0xFF, 0xFF, 0xFF, 0xFF, 
  0xFF, 0xFF, 0xFF, 0xFF, 0xFF, 0xFF, 0xFF, 0xFF, 0xFF, 0xFF, 0xFF, 0xFF, 
  0xFF, 0xFF, 0xFF, 0xFF, 0xFF, 0xFF, 0xFF, 0xFF, 0xFF, 0xFF, 0xFF, 0xFF, 
  0xFF, 0xFF, 0xFF, 0xFF, 0xFF, 0xFF, 0xFF, 0xFF, 0xFF, 0xFF, 0xFF, 0xFF, 
  0xFF, 0xFF, 0xFF, 0xFF, };
